<?xml version="1.0" encoding="UTF-8"?>
<svg width="1446px" height="184px" viewBox="0 0 1446 184" version="1.1" xmlns="http://www.w3.org/2000/svg" xmlns:xlink="http://www.w3.org/1999/xlink">
    <title>Path</title>
    <g id="Page-1" stroke="none" stroke-width="1" fill="none" fill-rule="evenodd">
        <g id="wave2" transform="translate(0.000000, -0.000000)" fill="#2563EB" fill-rule="nonzero">
            <g id="wave-(1)" transform="translate(723.000000, 92.000000) rotate(180.000000) translate(-723.000000, -92.000000) ">
                <path d="M0,0 L40.1666667,7.690625 C80.3333333,15.09375 160.666667,30.90625 241,34.5 C321.333333,38.09375 401.666667,30.90625 482,46 C562.333333,61.09375 642.666667,99.90625 723,111.190625 C803.333333,122.90625 883.666667,107.09375 964,99.690625 C1044.33333,92 1124.66667,92 1205,107.309375 C1285.33333,122.90625 1365.66667,153.09375 1405.83333,168.690625 L1446,184 L1446,184 L1405.83333,184 C1365.66667,184 1285.33333,184 1205,184 C1124.66667,184 1044.33333,184 964,184 C883.666667,184 803.333333,184 723,184 C642.666667,184 562.333333,184 482,184 C401.666667,184 321.333333,184 241,184 C160.666667,184 80.3333333,184 40.1666667,184 L0,184 L0,0 Z" id="Path"></path>
            </g>
        </g>
    </g>
</svg>