<?xml version="1.0" encoding="UTF-8"?>
<svg width="1446px" height="192px" viewBox="0 0 1446 192" version="1.1" xmlns="http://www.w3.org/2000/svg" xmlns:xlink="http://www.w3.org/1999/xlink">
    <title>wave</title>
    <g id="Page-1" stroke="none" stroke-width="1" fill="none" fill-rule="evenodd">
        <g id="Landing-Page" transform="translate(3.000000, -766.000000)" fill="#4D66FF" fill-rule="nonzero">
            <g id="Header-05" transform="translate(-3.000000, 0.000000)">
                <g id="wave" transform="translate(0.000000, 766.000000)">
                    <path d="M0,0 L34.4429167,10.7 C68.8858333,21 137.570833,43 206.858333,58.7 C275.442917,75 344.429167,85 412.7125,69.3 C482,53 551.2875,11 619.570833,5.3 C688.557083,0 757.141667,32 826.429167,58.7 C895.114167,85 964,107 1033.2875,106.7 C1101.67125,107 1170.85833,85 1239.14167,80 C1308.32875,75 1376.7125,85 1411.85833,90.7 L1446,96 L1446,192 L1411.55708,192 C1377.11417,192 1308.42917,192 1239.14167,192 C1170.55708,192 1101.57083,192 1033.2875,192 C964,192 894.7125,192 826.429167,192 C757.442917,192 688.858333,192 619.570833,192 C550.885833,192 482,192 412.7125,192 C344.32875,192 275.141667,192 206.858333,192 C137.67125,192 69.2875,192 34.1416667,192 L0,192 L0,0 Z" id="Path"></path>
                </g>
            </g>
        </g>
    </g>
</svg>